HIERARCHY
ROOT Hips
{
	OFFSET 0.000000 0.000000 0.000000
	CHANNELS 6 Xposition Yposition Zposition Xrotation Yrotation Zrotation
	JOINT LeftUpLeg_virtual
	{
		OFFSET 0.000000 0.000000 0.000000
		CHANNELS 3 Xrotation Yrotation Zrotation
		JOINT LeftUpLeg
		{
			OFFSET 11.394100 -6.187798 -0.413800
			CHANNELS 3 Xrotation Yrotation Zrotation
			JOINT LeftLeg
			{
				OFFSET 0.430247 -32.302673 3.732800
				CHANNELS 3 Xrotation Yrotation Zrotation
				JOINT LeftFoot
				{
					OFFSET -0.430247 -48.264931 -6.423300
					CHANNELS 3 Xrotation Yrotation Zrotation
					JOINT LeftToeBase
					{
						OFFSET 4.230900 -16.068199 23.438400
						CHANNELS 3 Xrotation Yrotation Zrotation
						JOINT LeftToe_End
						{
							OFFSET 4.510700 0.695400 19.974600
							CHANNELS 3 Xrotation Yrotation Zrotation
							End Site
							{
								OFFSET 0 0 0
							}
						}
					}
				}
			}
		}
	}
	JOINT RightUpLeg_virtual
	{
		OFFSET 0.000000 0.000000 0.000000
		CHANNELS 3 Xrotation Yrotation Zrotation
		JOINT RightUpLeg
		{
			OFFSET -11.333700 -6.187798 -0.413800
			CHANNELS 3 Xrotation Yrotation Zrotation
			JOINT RightLeg
			{
				OFFSET -0.430392 -32.302628 3.733000
				CHANNELS 3 Xrotation Yrotation Zrotation
				JOINT RightFoot
				{
					OFFSET 0.430392 -48.264973 -6.423500
					CHANNELS 3 Xrotation Yrotation Zrotation
					JOINT RightToeBase
					{
						OFFSET -4.230900 -16.068199 23.438400
						CHANNELS 3 Xrotation Yrotation Zrotation
						JOINT RightToe_End
						{
							OFFSET -4.510700 0.695400 19.974600
							CHANNELS 3 Xrotation Yrotation Zrotation
							End Site
							{
								OFFSET 0 0 0
							}
						}
					}
				}
			}
		}
	}
	JOINT Spine_virtual
	{
		OFFSET 0.000000 0.000000 0.000000
		CHANNELS 3 Xrotation Yrotation Zrotation
		JOINT Spine
		{
			OFFSET -0.002400 12.777504 0.315300
			CHANNELS 3 Xrotation Yrotation Zrotation
			JOINT Spine1
			{
				OFFSET -0.002067 5.816869 0.032633
				CHANNELS 3 Xrotation Yrotation Zrotation
				JOINT Spine1_split
				{
					OFFSET -0.002067 5.816869 0.032633
					CHANNELS 3 Xrotation Yrotation Zrotation
					JOINT Spine2
					{
						OFFSET -0.002067 5.816869 0.032633
						CHANNELS 3 Xrotation Yrotation Zrotation
						JOINT Neck_virtual
						{
							OFFSET 0.000000 0.000000 0.000000
							CHANNELS 3 Xrotation Yrotation Zrotation
							JOINT Neck
							{
								OFFSET -0.003700 21.199493 -0.826900
								CHANNELS 3 Xrotation Yrotation Zrotation
								JOINT Head
								{
									OFFSET 0.000000 20.442200 4.834800
									CHANNELS 3 Xrotation Yrotation Zrotation
									JOINT HeadTop_End
									{
										OFFSET 0.000000 34.668396 4.968400
										CHANNELS 3 Xrotation Yrotation Zrotation
										End Site
										{
											OFFSET 0 0 0
										}
									}
								}
							}
						}
						JOINT LeftShoulder_virtual
						{
							OFFSET 0.000000 0.000000 0.000000
							CHANNELS 3 Xrotation Yrotation Zrotation
							JOINT LeftShoulder
							{
								OFFSET 3.288150 8.794197 -1.372250
								CHANNELS 3 Xrotation Yrotation Zrotation
								JOINT LeftShoulder_split
								{
									OFFSET 3.288150 8.794197 -1.372250
									CHANNELS 3 Xrotation Yrotation Zrotation
									JOINT LeftArm
									{
										OFFSET 11.953299 -2.279007 -0.146200
										CHANNELS 3 Xrotation Yrotation Zrotation
										JOINT LeftForeArm
										{
											OFFSET 18.448900 0.000000 0.000000
											CHANNELS 3 Xrotation Yrotation Zrotation
											JOINT LeftHand
											{
												OFFSET 29.527798 0.000000 0.000000
												CHANNELS 3 Xrotation Yrotation Zrotation
												End Site
												{
													OFFSET 0 0 0
												}
											}
										}
									}
								}
							}
						}
						JOINT RightShoulder_virtual
						{
							OFFSET 0.000000 0.000000 0.000000
							CHANNELS 3 Xrotation Yrotation Zrotation
							JOINT RightShoulder
							{
								OFFSET -3.249400 8.794197 -1.372250
								CHANNELS 3 Xrotation Yrotation Zrotation
								JOINT RightShoulder_split
								{
									OFFSET -3.249400 8.794197 -1.372250
									CHANNELS 3 Xrotation Yrotation Zrotation
									JOINT RightArm
									{
										OFFSET -11.953299 -2.279007 -0.146200
										CHANNELS 3 Xrotation Yrotation Zrotation
										JOINT RightForeArm
										{
											OFFSET -18.448900 0.000000 0.000000
											CHANNELS 3 Xrotation Yrotation Zrotation
											JOINT RightHand
											{
												OFFSET -29.527802 0.000000 0.000000
												CHANNELS 3 Xrotation Yrotation Zrotation
												End Site
												{
													OFFSET 0 0 0
												}
											}
										}
									}
								}
							}
						}
					}
				}
			}
		}
	}
}
MOTION
Frames: 7
Frame Time: 0.03333333
-0.524538 96.827736 -2.685791 0.000000 0.000000 0.000000 -1.596224 -1.152006 -0.970777 -17.476379 2.251257 10.256729 29.127263 4.066534 1.596723 -7.413111 2.338050 -10.051592 1.318983 0.153287 -0.556051 0.000000 0.000000 0.000000 -1.489651 -1.027956 -0.875437 -22.026305 1.857947 -4.869231 32.048511 -2.358551 -2.443048 -5.529246 -0.101304 7.126013 3.386543 0.354237 1.500617 0.000000 0.000000 0.000000 -1.592384 -1.964796 -1.095242 1.375092 -0.807126 -0.019985 -1.685025 -0.246078 0.650367 0.884373 0.351284 0.001423 0.000000 0.000000 0.000000 -2.011340 -0.110344 0.716464 -0.941651 -0.282965 -0.673523 5.098128 -1.887589 2.414560 0.000000 0.000000 0.000000 -2.314003 -0.022035 0.409101 1.172823 -11.008968 -9.859668 -3.062494 0.618263 -1.709070 21.145094 -21.754706 -65.088513 -1.112518 -17.663913 1.299109 0.000000 0.000000 0.000000 -1.745180 -0.023184 0.738979 1.671483 5.825771 10.713116 -1.835703 2.205366 -1.634777 6.159938 24.124983 65.968330 0.509974 15.915618 0.683106 0.000000 0.000000 0.000000 
-0.423666 96.941330 -2.657019 0.000000 0.000000 0.000000 -1.590959 -1.152871 -0.952211 -17.501415 2.122736 10.205687 28.943159 4.195892 1.561556 -7.304319 2.366591 -9.828531 1.222324 0.181852 -0.539574 0.000000 0.000000 0.000000 -1.470631 -1.078282 -0.874690 -21.708628 1.957062 -4.860174 31.873180 -2.410229 -2.503646 -5.468185 -0.253819 6.678987 3.175483 0.312876 1.668571 0.000000 0.000000 0.000000 -1.522683 -2.038998 -1.170625 1.227070 -0.772017 0.043698 -1.631223 -0.240929 0.640731 0.965041 0.464029 0.059439 0.000000 0.000000 0.000000 -2.015600 -0.113181 0.713040 -0.937233 -0.245910 -0.685427 5.039851 -1.933900 2.363551 0.000000 0.000000 0.000000 -2.286628 -0.006372 0.410870 1.172344 -11.060052 -9.983355 -3.120409 0.690968 -1.705814 21.125828 -21.854181 -65.126837 -1.107628 -17.722555 1.153357 0.000000 0.000000 0.000000 -1.710048 -0.016911 0.727639 1.699283 5.988257 10.770149 -1.764864 2.391567 -1.650229 6.315816 24.189071 65.825484 0.560518 15.813558 0.694892 0.000000 0.000000 0.000000 
-0.341319 97.052475 -2.622290 0.000000 0.000000 0.000000 -1.638102 -1.231057 -0.961293 -17.516237 2.009032 10.121545 28.725488 4.464343 1.601773 -7.106157 2.263472 -9.587381 1.204462 0.225462 -0.472189 0.000000 0.000000 0.000000 -1.454956 -1.069760 -0.941713 -21.336430 2.055047 -4.823693 31.826766 -2.455871 -2.617144 -5.947476 -0.378274 6.038510 3.025692 0.322204 1.633675 0.000000 0.000000 0.000000 -1.449558 -2.162938 -1.293926 1.186630 -0.705263 0.179128 -1.536669 -0.225622 0.613773 1.016183 0.472553 0.056312 0.000000 0.000000 0.000000 -1.992909 -0.111166 0.689632 -0.949187 -0.180593 -0.757950 4.797810 -2.015549 2.385189 0.000000 0.000000 0.000000 -2.223193 0.011025 0.391431 1.159755 -11.178007 -10.162179 -3.203544 0.914530 -1.679165 21.036462 -21.856218 -65.141959 -1.021436 -17.906676 1.027769 0.000000 0.000000 0.000000 -1.646044 -0.010557 0.687187 1.756262 6.164425 10.818435 -1.629883 2.555516 -1.675037 6.597643 24.455646 65.429189 0.629473 15.894702 0.692336 0.000000 0.000000 0.000000 
-0.256428 97.078850 -2.624582 0.000000 0.000000 0.000000 -1.702927 -1.403098 -0.977035 -17.494498 1.960114 9.977977 28.584598 4.853775 1.713472 -6.963484 2.092736 -9.369177 1.206707 0.281468 -0.355373 0.000000 0.000000 0.000000 -1.415727 -1.052766 -1.002729 -21.167238 2.092048 -4.838442 31.966945 -2.471740 -2.699181 -6.528218 -0.475102 5.440298 2.811964 0.354612 1.413460 0.000000 0.000000 0.000000 -1.378036 -2.355098 -1.390794 1.259080 -0.626624 0.331350 -1.398592 -0.195607 0.575008 0.987349 0.444656 -0.008854 0.000000 0.000000 0.000000 -1.924215 -0.098684 0.655743 -0.985905 -0.100029 -0.861701 4.368605 -2.131571 2.504698 0.000000 0.000000 0.000000 -2.121864 0.034081 0.358976 1.128251 -11.341026 -10.354382 -3.338351 1.158655 -1.622400 20.922531 -21.850458 -65.025320 -0.890068 -18.162921 0.898464 0.000000 0.000000 0.000000 -1.555262 -0.000088 0.624271 1.836558 6.339639 10.826776 -1.440934 2.657126 -1.675811 6.907644 24.899586 64.829157 0.698578 16.134768 0.685710 0.000000 0.000000 0.000000 
-0.130837 97.038658 -2.683046 0.000000 0.000000 0.000000 -1.711640 -1.671648 -0.982880 -17.555985 1.992426 9.770659 28.628133 5.355333 1.864279 -6.987557 1.918094 -9.217122 1.165136 0.333946 -0.190244 0.000000 0.000000 0.000000 -1.328839 -1.118861 -1.035604 -21.330747 2.020064 -4.919532 31.980903 -2.338525 -2.743488 -6.749123 -0.537270 5.288127 2.041983 0.360813 1.018934 0.000000 0.000000 0.000000 -1.280562 -2.596206 -1.457579 1.431956 -0.557579 0.440246 -1.210967 -0.156156 0.530611 0.905930 0.390920 -0.049177 0.000000 0.000000 0.000000 -1.792088 -0.071038 0.618837 -1.047114 -0.028390 -0.947175 3.744032 -2.267193 2.759494 0.000000 0.000000 0.000000 -1.971954 0.068877 0.326764 1.076035 -11.551069 -10.510292 -3.414056 1.293928 -1.735762 20.779679 -21.925812 -64.736062 -0.745399 -18.514966 0.755599 0.000000 0.000000 0.000000 -1.432694 0.017792 0.555850 1.931506 6.526373 10.798025 -1.241822 2.685706 -1.690357 7.142401 25.493082 64.124138 0.738534 16.471334 0.675462 0.000000 0.000000 0.000000 
0.009346 96.953835 -2.769619 0.000000 0.000000 0.000000 -1.610361 -1.998951 -0.993048 -17.818145 2.080557 9.563717 28.943654 5.915400 2.016659 -7.192959 1.775180 -9.215900 1.010245 0.359618 0.028066 0.000000 0.000000 0.000000 -1.156388 -1.324201 -1.065463 -21.850815 1.878403 -4.981135 31.642316 -2.071679 -2.759732 -6.533634 -0.603677 5.615873 0.977082 0.326182 0.580299 0.000000 0.000000 0.000000 -1.133682 -2.903267 -1.565861 1.670178 -0.514630 0.472292 -0.984063 -0.110029 0.479515 0.860042 0.321709 -0.002167 0.000000 0.000000 0.000000 -1.579343 -0.025922 0.578106 -1.126010 0.016143 -0.973720 2.930644 -2.445566 3.173994 0.000000 0.000000 0.000000 -1.777334 0.116990 0.298972 1.004681 -11.831501 -10.590171 -3.340716 1.294052 -1.967978 20.563948 -22.049215 -64.286041 -0.618783 -18.936124 0.599458 0.000000 0.000000 0.000000 -1.267481 0.047427 0.489021 2.025927 6.771739 10.733527 -1.048404 2.679853 -1.695876 7.227927 26.222513 63.415848 0.739260 16.816088 0.667380 0.000000 0.000000 0.000000 
0.130418 96.881088 -2.955462 0.000000 0.000000 0.000000 -1.383593 -2.457786 -1.081543 -18.307328 2.161283 9.459034 29.592406 6.525435 2.150488 -7.554293 1.761358 -9.415114 0.798546 0.341970 0.270055 0.000000 0.000000 0.000000 -0.878919 -1.716080 -1.158759 -22.644285 1.686246 -4.928350 30.947488 -1.803605 -2.750959 -5.970150 -0.731671 6.020954 0.240706 0.266979 0.311981 0.000000 0.000000 0.000000 -0.893492 -3.296490 -1.761043 1.944190 -0.486779 0.407523 -0.714015 -0.059224 0.419138 0.874781 0.334914 0.066728 0.000000 0.000000 0.000000 -1.280569 0.032157 0.522978 -1.212851 0.011482 -0.904923 1.965797 -2.694851 3.785347 0.000000 0.000000 0.000000 -1.532138 0.171629 0.263291 0.924284 -12.215021 -10.568927 -3.077803 1.167925 -2.162503 20.103496 -22.087476 -63.758983 -0.492864 -19.378958 0.462507 0.000000 0.000000 0.000000 -1.049906 0.088019 0.424298 2.114452 7.108317 10.665334 -0.902138 2.608067 -1.667069 7.135585 27.086865 62.786644 0.704142 17.110911 0.649360 0.000000 0.000000 0.000000 
